<svg width="1091" height="500" viewBox="0 0 1091 500" fill="none" xmlns="http://www.w3.org/2000/svg">
<rect x="301.375" y="0.375" width="499.25" height="499.25" rx="249.625" stroke="#969696" stroke-width="0.75"/>
<circle cx="411.5" cy="459.5" r="16" fill="#EAEAEA" stroke="#9C50FF"/>
<circle cx="690.5" cy="459.5" r="16" fill="#EAEAEA" stroke="#9C50FF"/>
<circle cx="411.5" cy="39.5" r="16" fill="#9C50FF" stroke="#9C50FF"/>
<circle cx="690.5" cy="39.5" r="16" fill="#EAEAEA" stroke="#9C50FF"/>
<circle cx="301.5" cy="249.5" r="16" fill="#EAEAEA" stroke="#9C50FF"/>
<circle cx="800.5" cy="249.5" r="16" fill="#EAEAEA" stroke="#9C50FF"/>
<path d="M208.896 34.832V41.696C208.896 42.1547 208.907 42.5707 208.928 42.944C208.96 43.3173 209.04 43.6373 209.168 43.904C209.296 44.16 209.488 44.3573 209.744 44.496C210 44.6347 210.352 44.704 210.8 44.704C211.248 44.704 211.6 44.6347 211.856 44.496C212.112 44.3573 212.304 44.16 212.432 43.904C212.56 43.6373 212.635 43.3173 212.656 42.944C212.688 42.5707 212.704 42.1547 212.704 41.696V34.832H214.496V41.376C214.496 42.176 214.448 42.88 214.352 43.488C214.267 44.0853 214.091 44.5867 213.824 44.992C213.557 45.3867 213.179 45.6853 212.688 45.888C212.208 46.0907 211.579 46.192 210.8 46.192C210.021 46.192 209.387 46.0907 208.896 45.888C208.416 45.6853 208.043 45.3867 207.776 44.992C207.509 44.5867 207.328 44.0853 207.232 43.488C207.147 42.88 207.104 42.176 207.104 41.376V34.832H208.896ZM221.418 46.192C220.447 46.192 219.631 46.0213 218.97 45.68C218.308 45.3387 217.764 44.8853 217.338 44.32L218.49 43.216C218.916 43.728 219.37 44.1067 219.85 44.352C220.33 44.5867 220.874 44.704 221.482 44.704C222.186 44.704 222.724 44.544 223.098 44.224C223.482 43.904 223.674 43.4453 223.674 42.848C223.674 42.368 223.535 42 223.258 41.744C222.98 41.4773 222.506 41.2853 221.834 41.168L220.618 40.976C220.084 40.8907 219.636 40.752 219.274 40.56C218.911 40.3573 218.618 40.1227 218.394 39.856C218.17 39.5787 218.004 39.2747 217.898 38.944C217.802 38.6027 217.754 38.2453 217.754 37.872C217.754 36.816 218.095 36.016 218.778 35.472C219.46 34.9173 220.399 34.64 221.594 34.64C222.479 34.64 223.231 34.784 223.85 35.072C224.479 35.3493 224.986 35.744 225.37 36.256L224.25 37.376C223.94 37.0027 223.572 36.704 223.146 36.48C222.73 36.2453 222.212 36.128 221.594 36.128C220.932 36.128 220.426 36.272 220.074 36.56C219.732 36.8373 219.562 37.248 219.562 37.792C219.562 38.2507 219.695 38.6133 219.962 38.88C220.239 39.136 220.724 39.3227 221.418 39.44L222.602 39.648C223.604 39.8293 224.335 40.1973 224.794 40.752C225.252 41.296 225.482 41.9627 225.482 42.752C225.482 43.264 225.391 43.7333 225.21 44.16C225.039 44.5867 224.778 44.9493 224.426 45.248C224.084 45.5467 223.658 45.7813 223.146 45.952C222.644 46.112 222.068 46.192 221.418 46.192ZM228.803 46V34.832H235.795V36.336H230.595V39.584H235.604V41.088H230.595V44.496H235.795V46H228.803ZM241.261 46H239.485V34.832H243.661C244.728 34.832 245.539 35.1307 246.093 35.728C246.659 36.3253 246.941 37.1467 246.941 38.192C246.941 39.0453 246.733 39.7493 246.317 40.304C245.901 40.8587 245.304 41.2 244.525 41.328L247.101 46H245.117L242.749 41.488H241.261V46ZM243.405 40.048C244.515 40.048 245.069 39.5413 245.069 38.528V37.84C245.069 36.8267 244.515 36.32 243.405 36.32H241.261V40.048H243.405ZM262.689 46H260.913V34.832H265.089C266.155 34.832 266.966 35.1307 267.521 35.728C268.086 36.3253 268.369 37.1467 268.369 38.192C268.369 39.0453 268.161 39.7493 267.745 40.304C267.329 40.8587 266.731 41.2 265.953 41.328L268.529 46H266.545L264.177 41.488H262.689V46ZM264.833 40.048C265.942 40.048 266.497 39.5413 266.497 38.528V37.84C266.497 36.8267 265.942 36.32 264.833 36.32H262.689V40.048H264.833ZM271.659 46V34.832H278.651V36.336H273.451V39.584H278.459V41.088H273.451V44.496H278.651V46H271.659ZM285.7 46.192C284.73 46.192 283.914 46.0213 283.252 45.68C282.591 45.3387 282.047 44.8853 281.62 44.32L282.772 43.216C283.199 43.728 283.652 44.1067 284.132 44.352C284.612 44.5867 285.156 44.704 285.764 44.704C286.468 44.704 287.007 44.544 287.38 44.224C287.764 43.904 287.956 43.4453 287.956 42.848C287.956 42.368 287.818 42 287.54 41.744C287.263 41.4773 286.788 41.2853 286.116 41.168L284.9 40.976C284.367 40.8907 283.919 40.752 283.556 40.56C283.194 40.3573 282.9 40.1227 282.676 39.856C282.452 39.5787 282.287 39.2747 282.18 38.944C282.084 38.6027 282.036 38.2453 282.036 37.872C282.036 36.816 282.378 36.016 283.06 35.472C283.743 34.9173 284.682 34.64 285.876 34.64C286.762 34.64 287.514 34.784 288.132 35.072C288.762 35.3493 289.268 35.744 289.652 36.256L288.532 37.376C288.223 37.0027 287.855 36.704 287.428 36.48C287.012 36.2453 286.495 36.128 285.876 36.128C285.215 36.128 284.708 36.272 284.356 36.56C284.015 36.8373 283.844 37.248 283.844 37.792C283.844 38.2507 283.978 38.6133 284.244 38.88C284.522 39.136 285.007 39.3227 285.7 39.44L286.884 39.648C287.887 39.8293 288.618 40.1973 289.076 40.752C289.535 41.296 289.764 41.9627 289.764 42.752C289.764 43.264 289.674 43.7333 289.492 44.16C289.322 44.5867 289.06 44.9493 288.708 45.248C288.367 45.5467 287.94 45.7813 287.428 45.952C286.927 46.112 286.351 46.192 285.7 46.192ZM293.086 46V34.832H300.078V36.336H294.878V39.584H299.886V41.088H294.878V44.496H300.078V46H293.086ZM309.816 46L308.968 43.024H305.416L304.568 46H302.744L306.008 34.832H308.456L311.72 46H309.816ZM307.256 36.64H307.128L305.752 41.536H308.632L307.256 36.64ZM316.257 46H314.481V34.832H318.657C319.724 34.832 320.535 35.1307 321.089 35.728C321.655 36.3253 321.937 37.1467 321.937 38.192C321.937 39.0453 321.729 39.7493 321.313 40.304C320.897 40.8587 320.3 41.2 319.521 41.328L322.097 46H320.113L317.745 41.488H316.257V46ZM318.401 40.048C319.511 40.048 320.065 39.5413 320.065 38.528V37.84C320.065 36.8267 319.511 36.32 318.401 36.32H316.257V40.048H318.401ZM328.971 46.192C327.553 46.192 326.497 45.6907 325.803 44.688C325.121 43.6853 324.779 42.2613 324.779 40.416C324.779 38.5707 325.121 37.1467 325.803 36.144C326.497 35.1413 327.553 34.64 328.971 34.64C329.515 34.64 329.985 34.7147 330.379 34.864C330.785 35.0027 331.131 35.2 331.419 35.456C331.707 35.7013 331.947 35.9947 332.139 36.336C332.342 36.6667 332.507 37.024 332.635 37.408L331.019 37.952C330.934 37.696 330.838 37.456 330.731 37.232C330.625 37.008 330.491 36.816 330.331 36.656C330.171 36.496 329.979 36.368 329.755 36.272C329.542 36.176 329.275 36.128 328.955 36.128C328.166 36.128 327.59 36.432 327.227 37.04C326.865 37.6373 326.683 38.448 326.683 39.472V41.36C326.683 42.384 326.865 43.2 327.227 43.808C327.59 44.4053 328.166 44.704 328.955 44.704C329.275 44.704 329.542 44.656 329.755 44.56C329.979 44.464 330.171 44.336 330.331 44.176C330.491 44.016 330.625 43.824 330.731 43.6C330.838 43.376 330.934 43.136 331.019 42.88L332.635 43.424C332.507 43.808 332.342 44.1707 332.139 44.512C331.947 44.8427 331.707 45.136 331.419 45.392C331.131 45.6373 330.785 45.8347 330.379 45.984C329.985 46.1227 329.515 46.192 328.971 46.192ZM341.221 41.088H337.509V46H335.717V34.832H337.509V39.584H341.221V34.832H343.013V46H341.221V41.088Z" fill="#111111"/>
<path d="M759.896 34.832V41.696C759.896 42.1547 759.907 42.5707 759.928 42.944C759.96 43.3173 760.04 43.6373 760.168 43.904C760.296 44.16 760.488 44.3573 760.744 44.496C761 44.6347 761.352 44.704 761.8 44.704C762.248 44.704 762.6 44.6347 762.856 44.496C763.112 44.3573 763.304 44.16 763.432 43.904C763.56 43.6373 763.635 43.3173 763.656 42.944C763.688 42.5707 763.704 42.1547 763.704 41.696V34.832H765.496V41.376C765.496 42.176 765.448 42.88 765.352 43.488C765.267 44.0853 765.091 44.5867 764.824 44.992C764.557 45.3867 764.179 45.6853 763.688 45.888C763.208 46.0907 762.579 46.192 761.8 46.192C761.021 46.192 760.387 46.0907 759.896 45.888C759.416 45.6853 759.043 45.3867 758.776 44.992C758.509 44.5867 758.328 44.0853 758.232 43.488C758.147 42.88 758.104 42.176 758.104 41.376V34.832H759.896ZM772.418 46.192C771.447 46.192 770.631 46.0213 769.97 45.68C769.308 45.3387 768.764 44.8853 768.338 44.32L769.49 43.216C769.916 43.728 770.37 44.1067 770.85 44.352C771.33 44.5867 771.874 44.704 772.482 44.704C773.186 44.704 773.724 44.544 774.098 44.224C774.482 43.904 774.674 43.4453 774.674 42.848C774.674 42.368 774.535 42 774.258 41.744C773.98 41.4773 773.506 41.2853 772.834 41.168L771.618 40.976C771.084 40.8907 770.636 40.752 770.274 40.56C769.911 40.3573 769.618 40.1227 769.394 39.856C769.17 39.5787 769.004 39.2747 768.898 38.944C768.802 38.6027 768.754 38.2453 768.754 37.872C768.754 36.816 769.095 36.016 769.778 35.472C770.46 34.9173 771.399 34.64 772.594 34.64C773.479 34.64 774.231 34.784 774.85 35.072C775.479 35.3493 775.986 35.744 776.37 36.256L775.25 37.376C774.94 37.0027 774.572 36.704 774.146 36.48C773.73 36.2453 773.212 36.128 772.594 36.128C771.932 36.128 771.426 36.272 771.074 36.56C770.732 36.8373 770.562 37.248 770.562 37.792C770.562 38.2507 770.695 38.6133 770.962 38.88C771.239 39.136 771.724 39.3227 772.418 39.44L773.602 39.648C774.604 39.8293 775.335 40.1973 775.794 40.752C776.252 41.296 776.482 41.9627 776.482 42.752C776.482 43.264 776.391 43.7333 776.21 44.16C776.039 44.5867 775.778 44.9493 775.426 45.248C775.084 45.5467 774.658 45.7813 774.146 45.952C773.644 46.112 773.068 46.192 772.418 46.192ZM779.803 46V34.832H786.795V36.336H781.595V39.584H786.604V41.088H781.595V44.496H786.795V46H779.803ZM792.261 46H790.485V34.832H794.661C795.728 34.832 796.539 35.1307 797.093 35.728C797.659 36.3253 797.941 37.1467 797.941 38.192C797.941 39.0453 797.733 39.7493 797.317 40.304C796.901 40.8587 796.304 41.2 795.525 41.328L798.101 46H796.117L793.749 41.488H792.261V46ZM794.405 40.048C795.515 40.048 796.069 39.5413 796.069 38.528V37.84C796.069 36.8267 795.515 36.32 794.405 36.32H792.261V40.048H794.405ZM811.945 46V34.832H818.937V36.336H813.737V39.584H818.745V41.088H813.737V44.496H818.937V46H811.945ZM830.595 46H828.563L827.299 43.792L826.115 41.68H826.019L824.803 43.792L823.491 46H821.587L825.011 40.272L821.795 34.832H823.827L824.963 36.832L826.115 38.896H826.195L827.347 36.832L828.531 34.832H830.435L827.203 40.272L830.595 46ZM833.34 46V34.832H837.516C838.583 34.832 839.394 35.1307 839.948 35.728C840.514 36.3253 840.796 37.1467 840.796 38.192C840.796 39.2373 840.514 40.0587 839.948 40.656C839.394 41.2533 838.583 41.552 837.516 41.552H835.132V46H833.34ZM835.132 40.064H837.244C838.354 40.064 838.908 39.552 838.908 38.528V37.84C838.908 36.8267 838.354 36.32 837.244 36.32H835.132V40.064ZM844.086 46V34.832H851.078V36.336H845.878V39.584H850.886V41.088H845.878V44.496H851.078V46H844.086ZM856.544 46H854.768V34.832H858.944C860.01 34.832 860.821 35.1307 861.376 35.728C861.941 36.3253 862.224 37.1467 862.224 38.192C862.224 39.0453 862.016 39.7493 861.6 40.304C861.184 40.8587 860.586 41.2 859.808 41.328L862.384 46H860.4L858.032 41.488H856.544V46ZM858.688 40.048C859.797 40.048 860.352 39.5413 860.352 38.528V37.84C860.352 36.8267 859.797 36.32 858.688 36.32H856.544V40.048H858.688ZM865.417 46V44.64H868.041V36.192H865.417V34.832H872.457V36.192H869.833V44.64H872.457V46H865.417ZM876.227 46V34.832H883.219V36.336H878.019V39.584H883.027V41.088H878.019V44.496H883.219V46H876.227ZM888.429 37.408H888.285V46H886.717V34.832H889.021L892.301 43.424H892.445V34.832H894.013V46H891.709L888.429 37.408ZM901.399 46.192C899.98 46.192 898.924 45.6907 898.231 44.688C897.548 43.6853 897.207 42.2613 897.207 40.416C897.207 38.5707 897.548 37.1467 898.231 36.144C898.924 35.1413 899.98 34.64 901.399 34.64C901.943 34.64 902.412 34.7147 902.807 34.864C903.212 35.0027 903.559 35.2 903.847 35.456C904.135 35.7013 904.375 35.9947 904.567 36.336C904.769 36.6667 904.935 37.024 905.063 37.408L903.447 37.952C903.361 37.696 903.265 37.456 903.159 37.232C903.052 37.008 902.919 36.816 902.759 36.656C902.599 36.496 902.407 36.368 902.183 36.272C901.969 36.176 901.703 36.128 901.383 36.128C900.593 36.128 900.017 36.432 899.655 37.04C899.292 37.6373 899.111 38.448 899.111 39.472V41.36C899.111 42.384 899.292 43.2 899.655 43.808C900.017 44.4053 900.593 44.704 901.383 44.704C901.703 44.704 901.969 44.656 902.183 44.56C902.407 44.464 902.599 44.336 902.759 44.176C902.919 44.016 903.052 43.824 903.159 43.6C903.265 43.376 903.361 43.136 903.447 42.88L905.063 43.424C904.935 43.808 904.769 44.1707 904.567 44.512C904.375 44.8427 904.135 45.136 903.847 45.392C903.559 45.6373 903.212 45.8347 902.807 45.984C902.412 46.1227 901.943 46.192 901.399 46.192ZM908.368 46V34.832H915.36V36.336H910.16V39.584H915.168V41.088H910.16V44.496H915.36V46H908.368ZM932.436 45.008V41.824H929.412V40.4H932.436V37.216H934.004V40.4H937.028V41.824H934.004V45.008H932.436ZM952.744 34.832V41.696C952.744 42.1547 952.754 42.5707 952.776 42.944C952.808 43.3173 952.888 43.6373 953.016 43.904C953.144 44.16 953.336 44.3573 953.592 44.496C953.848 44.6347 954.2 44.704 954.648 44.704C955.096 44.704 955.448 44.6347 955.704 44.496C955.96 44.3573 956.152 44.16 956.28 43.904C956.408 43.6373 956.482 43.3173 956.504 42.944C956.536 42.5707 956.552 42.1547 956.552 41.696V34.832H958.344V41.376C958.344 42.176 958.296 42.88 958.2 43.488C958.114 44.0853 957.938 44.5867 957.672 44.992C957.405 45.3867 957.026 45.6853 956.536 45.888C956.056 46.0907 955.426 46.192 954.648 46.192C953.869 46.192 953.234 46.0907 952.744 45.888C952.264 45.6853 951.89 45.3867 951.624 44.992C951.357 44.5867 951.176 44.0853 951.08 43.488C950.994 42.88 950.952 42.176 950.952 41.376V34.832H952.744ZM965.265 46.192C964.295 46.192 963.479 46.0213 962.817 45.68C962.156 45.3387 961.612 44.8853 961.185 44.32L962.337 43.216C962.764 43.728 963.217 44.1067 963.697 44.352C964.177 44.5867 964.721 44.704 965.329 44.704C966.033 44.704 966.572 44.544 966.945 44.224C967.329 43.904 967.521 43.4453 967.521 42.848C967.521 42.368 967.383 42 967.105 41.744C966.828 41.4773 966.353 41.2853 965.681 41.168L964.465 40.976C963.932 40.8907 963.484 40.752 963.121 40.56C962.759 40.3573 962.465 40.1227 962.241 39.856C962.017 39.5787 961.852 39.2747 961.745 38.944C961.649 38.6027 961.601 38.2453 961.601 37.872C961.601 36.816 961.943 36.016 962.625 35.472C963.308 34.9173 964.247 34.64 965.441 34.64C966.327 34.64 967.079 34.784 967.697 35.072C968.327 35.3493 968.833 35.744 969.217 36.256L968.097 37.376C967.788 37.0027 967.42 36.704 966.993 36.48C966.577 36.2453 966.06 36.128 965.441 36.128C964.78 36.128 964.273 36.272 963.921 36.56C963.58 36.8373 963.409 37.248 963.409 37.792C963.409 38.2507 963.543 38.6133 963.809 38.88C964.087 39.136 964.572 39.3227 965.265 39.44L966.449 39.648C967.452 39.8293 968.183 40.1973 968.641 40.752C969.1 41.296 969.329 41.9627 969.329 42.752C969.329 43.264 969.239 43.7333 969.057 44.16C968.887 44.5867 968.625 44.9493 968.273 45.248C967.932 45.5467 967.505 45.7813 966.993 45.952C966.492 46.112 965.916 46.192 965.265 46.192ZM978.667 46L977.819 43.024H974.267L973.419 46H971.595L974.859 34.832H977.307L980.571 46H978.667ZM976.107 36.64H975.979L974.603 41.536H977.483L976.107 36.64ZM983.317 34.832H987.173C988.186 34.832 988.97 35.0933 989.525 35.616C990.09 36.1387 990.373 36.8533 990.373 37.76C990.373 38.4107 990.213 38.928 989.893 39.312C989.573 39.696 989.141 39.968 988.597 40.128V40.208C989.247 40.3573 989.77 40.6453 990.165 41.072C990.559 41.488 990.757 42.08 990.757 42.848C990.757 43.3067 990.682 43.728 990.533 44.112C990.383 44.496 990.17 44.832 989.893 45.12C989.615 45.3973 989.279 45.616 988.885 45.776C988.501 45.9253 988.074 46 987.605 46H983.317V34.832ZM987.061 44.624C987.658 44.624 988.117 44.5013 988.437 44.256C988.757 44.0107 988.917 43.616 988.917 43.072V42.496C988.917 41.952 988.757 41.5573 988.437 41.312C988.117 41.0667 987.658 40.944 987.061 40.944H985.077V44.624H987.061ZM986.805 39.632C987.37 39.632 987.797 39.5253 988.085 39.312C988.383 39.088 988.533 38.72 988.533 38.208V37.632C988.533 37.12 988.383 36.7573 988.085 36.544C987.797 36.32 987.37 36.208 986.805 36.208H985.077V39.632H986.805ZM993.982 46V44.64H996.606V36.192H993.982V34.832H1001.02V36.192H998.398V44.64H1001.02V46H993.982ZM1005.14 46V34.832H1006.94V44.496H1012.02V46H1005.14ZM1015.41 46V44.64H1018.03V36.192H1015.41V34.832H1022.45V36.192H1019.83V44.64H1022.45V46H1015.41ZM1030.54 36.336V46H1028.75V36.336H1025.24V34.832H1034.04V36.336H1030.54ZM1039.46 46V41.792L1035.75 34.832H1037.75L1039.17 37.616L1040.33 40H1040.42L1041.59 37.616L1043.01 34.832H1044.97L1041.25 41.792V46H1039.46Z" fill="#111111"/>
<path d="M873.656 250.088H869.944V255H868.152V243.832H869.944V248.584H873.656V243.832H875.448V255H873.656V250.088ZM881.618 255V250.792L877.906 243.832H879.906L881.33 246.616L882.482 249H882.578L883.746 246.616L885.17 243.832H887.122L883.41 250.792V255H881.618ZM889.771 255V243.832H893.948C895.014 243.832 895.825 244.131 896.379 244.728C896.945 245.325 897.227 246.147 897.227 247.192C897.227 248.237 896.945 249.059 896.379 249.656C895.825 250.253 895.014 250.552 893.948 250.552H891.563V255H889.771ZM891.563 249.064H893.675C894.785 249.064 895.339 248.552 895.339 247.528V246.84C895.339 245.827 894.785 245.32 893.675 245.32H891.563V249.064ZM903.941 255.192C903.237 255.192 902.624 255.064 902.101 254.808C901.589 254.541 901.163 254.163 900.821 253.672C900.491 253.181 900.245 252.579 900.085 251.864C899.925 251.149 899.845 250.333 899.845 249.416C899.845 248.509 899.925 247.699 900.085 246.984C900.245 246.259 900.491 245.651 900.821 245.16C901.163 244.669 901.589 244.296 902.101 244.04C902.624 243.773 903.237 243.64 903.941 243.64C904.645 243.64 905.253 243.773 905.765 244.04C906.288 244.296 906.715 244.669 907.045 245.16C907.387 245.651 907.637 246.259 907.797 246.984C907.957 247.699 908.037 248.509 908.037 249.416C908.037 250.333 907.957 251.149 907.797 251.864C907.637 252.579 907.387 253.181 907.045 253.672C906.715 254.163 906.288 254.541 905.765 254.808C905.253 255.064 904.645 255.192 903.941 255.192ZM903.941 253.704C904.741 253.704 905.307 253.405 905.637 252.808C905.968 252.2 906.133 251.379 906.133 250.344V248.472C906.133 247.448 905.968 246.637 905.637 246.04C905.307 245.432 904.741 245.128 903.941 245.128C903.141 245.128 902.576 245.432 902.245 246.04C901.915 246.637 901.749 247.448 901.749 248.472V250.36C901.749 251.384 901.915 252.2 902.245 252.808C902.576 253.405 903.141 253.704 903.941 253.704ZM915.551 245.336V255H913.759V245.336H910.255V243.832H919.055V245.336H915.551ZM927.225 250.088H923.513V255H921.721V243.832H923.513V248.584H927.225V243.832H929.017V255H927.225V250.088ZM932.659 255V243.832H939.651V245.336H934.451V248.584H939.459V250.088H934.451V253.496H939.651V255H932.659ZM946.7 255.192C945.73 255.192 944.914 255.021 944.252 254.68C943.591 254.339 943.047 253.885 942.62 253.32L943.772 252.216C944.199 252.728 944.652 253.107 945.132 253.352C945.612 253.587 946.156 253.704 946.764 253.704C947.468 253.704 948.007 253.544 948.38 253.224C948.764 252.904 948.956 252.445 948.956 251.848C948.956 251.368 948.818 251 948.54 250.744C948.263 250.477 947.788 250.285 947.116 250.168L945.9 249.976C945.367 249.891 944.919 249.752 944.556 249.56C944.194 249.357 943.9 249.123 943.676 248.856C943.452 248.579 943.287 248.275 943.18 247.944C943.084 247.603 943.036 247.245 943.036 246.872C943.036 245.816 943.378 245.016 944.06 244.472C944.743 243.917 945.682 243.64 946.876 243.64C947.762 243.64 948.514 243.784 949.132 244.072C949.762 244.349 950.268 244.744 950.652 245.256L949.532 246.376C949.223 246.003 948.855 245.704 948.428 245.48C948.012 245.245 947.495 245.128 946.876 245.128C946.215 245.128 945.708 245.272 945.356 245.56C945.015 245.837 944.844 246.248 944.844 246.792C944.844 247.251 944.978 247.613 945.244 247.88C945.522 248.136 946.007 248.323 946.7 248.44L947.884 248.648C948.887 248.829 949.618 249.197 950.076 249.752C950.535 250.296 950.764 250.963 950.764 251.752C950.764 252.264 950.674 252.733 950.492 253.16C950.322 253.587 950.06 253.949 949.708 254.248C949.367 254.547 948.94 254.781 948.428 254.952C947.927 255.112 947.351 255.192 946.7 255.192ZM954.086 255V243.832H961.078V245.336H955.878V248.584H960.886V250.088H955.878V253.496H961.078V255H954.086ZM966.288 246.408H966.144V255H964.576V243.832H966.88L970.16 252.424H970.304V243.832H971.872V255H969.568L966.288 246.408ZM988.867 254.008V250.824H985.843V249.4H988.867V246.216H990.435V249.4H993.459V250.824H990.435V254.008H988.867ZM1010.66 249.864L1009.32 251.544V255H1007.53V243.832H1009.32V249.176H1009.4L1010.76 247.32L1013.49 243.832H1015.56L1011.88 248.536L1015.7 255H1013.65L1010.66 249.864ZM1021.79 255.192C1021.09 255.192 1020.48 255.064 1019.95 254.808C1019.44 254.541 1019.01 254.163 1018.67 253.672C1018.34 253.181 1018.1 252.579 1017.94 251.864C1017.78 251.149 1017.7 250.333 1017.7 249.416C1017.7 248.509 1017.78 247.699 1017.94 246.984C1018.1 246.259 1018.34 245.651 1018.67 245.16C1019.01 244.669 1019.44 244.296 1019.95 244.04C1020.48 243.773 1021.09 243.64 1021.79 243.64C1022.5 243.64 1023.1 243.773 1023.62 244.04C1024.14 244.296 1024.57 244.669 1024.9 245.16C1025.24 245.651 1025.49 246.259 1025.65 246.984C1025.81 247.699 1025.89 248.509 1025.89 249.416C1025.89 250.333 1025.81 251.149 1025.65 251.864C1025.49 252.579 1025.24 253.181 1024.9 253.672C1024.57 254.163 1024.14 254.541 1023.62 254.808C1023.1 255.064 1022.5 255.192 1021.79 255.192ZM1021.79 253.704C1022.59 253.704 1023.16 253.405 1023.49 252.808C1023.82 252.2 1023.98 251.379 1023.98 250.344V248.472C1023.98 247.448 1023.82 246.637 1023.49 246.04C1023.16 245.432 1022.59 245.128 1021.79 245.128C1020.99 245.128 1020.43 245.432 1020.1 246.04C1019.77 246.637 1019.6 247.448 1019.6 248.472V250.36C1019.6 251.384 1019.77 252.2 1020.1 252.808C1020.43 253.405 1020.99 253.704 1021.79 253.704ZM1030.57 246.408H1030.43V255H1028.86V243.832H1031.16L1034.44 252.424H1034.59V243.832H1036.15V255H1033.85L1030.57 246.408ZM1047.25 255H1039.19V253.416L1045.06 245.336H1039.41V243.832H1047.03V245.416L1041.16 253.496H1047.25V255ZM1050.51 255V243.832H1057.5V245.336H1052.3V248.584H1057.31V250.088H1052.3V253.496H1057.5V255H1050.51ZM1061.19 255V243.832H1065.37C1066.43 243.832 1067.24 244.131 1067.8 244.728C1068.36 245.325 1068.65 246.147 1068.65 247.192C1068.65 248.237 1068.36 249.059 1067.8 249.656C1067.24 250.253 1066.43 250.552 1065.37 250.552H1062.98V255H1061.19ZM1062.98 249.064H1065.1C1066.2 249.064 1066.76 248.552 1066.76 247.528V246.84C1066.76 245.827 1066.2 245.32 1065.1 245.32H1062.98V249.064ZM1076.26 245.336V255H1074.47V245.336H1070.96V243.832H1079.76V245.336H1076.26ZM1082.65 255V243.832H1089.64V245.336H1084.44V248.584H1089.45V250.088H1084.44V253.496H1089.64V255H1082.65Z" fill="#111111"/>
<path d="M764.392 466L763.544 463.024H759.992L759.144 466H757.32L760.584 454.832H763.032L766.296 466H764.392ZM761.832 456.64H761.704L760.328 461.536H763.208L761.832 456.64ZM769.042 468.208L774.434 453.84H775.986L770.594 468.208H769.042ZM779.755 454.832H783.611C784.625 454.832 785.409 455.093 785.964 455.616C786.529 456.139 786.812 456.853 786.812 457.76C786.812 458.411 786.652 458.928 786.332 459.312C786.012 459.696 785.58 459.968 785.036 460.128V460.208C785.686 460.357 786.209 460.645 786.604 461.072C786.998 461.488 787.196 462.08 787.196 462.848C787.196 463.307 787.121 463.728 786.972 464.112C786.822 464.496 786.609 464.832 786.332 465.12C786.054 465.397 785.718 465.616 785.324 465.776C784.94 465.925 784.513 466 784.043 466H779.755V454.832ZM783.499 464.624C784.097 464.624 784.556 464.501 784.876 464.256C785.196 464.011 785.356 463.616 785.356 463.072V462.496C785.356 461.952 785.196 461.557 784.876 461.312C784.556 461.067 784.097 460.944 783.499 460.944H781.515V464.624H783.499ZM783.244 459.632C783.809 459.632 784.235 459.525 784.523 459.312C784.822 459.088 784.971 458.72 784.971 458.208V457.632C784.971 457.12 784.822 456.757 784.523 456.544C784.235 456.32 783.809 456.208 783.244 456.208H781.515V459.632H783.244ZM791.525 462V460.256H796.357V462H791.525ZM805.551 456.336V466H803.759V456.336H800.255V454.832H809.055V456.336H805.551ZM811.945 466V454.832H818.937V456.336H813.737V459.584H818.745V461.088H813.737V464.496H818.937V466H811.945ZM825.987 466.192C825.016 466.192 824.2 466.021 823.539 465.68C822.877 465.339 822.333 464.885 821.907 464.32L823.059 463.216C823.485 463.728 823.939 464.107 824.419 464.352C824.899 464.587 825.443 464.704 826.051 464.704C826.755 464.704 827.293 464.544 827.667 464.224C828.051 463.904 828.243 463.445 828.243 462.848C828.243 462.368 828.104 462 827.827 461.744C827.549 461.477 827.075 461.285 826.403 461.168L825.187 460.976C824.653 460.891 824.205 460.752 823.843 460.56C823.48 460.357 823.187 460.123 822.963 459.856C822.739 459.579 822.573 459.275 822.467 458.944C822.371 458.603 822.323 458.245 822.323 457.872C822.323 456.816 822.664 456.016 823.347 455.472C824.029 454.917 824.968 454.64 826.163 454.64C827.048 454.64 827.8 454.784 828.419 455.072C829.048 455.349 829.555 455.744 829.939 456.256L828.819 457.376C828.509 457.003 828.141 456.704 827.715 456.48C827.299 456.245 826.781 456.128 826.163 456.128C825.501 456.128 824.995 456.272 824.643 456.56C824.301 456.837 824.131 457.248 824.131 457.792C824.131 458.251 824.264 458.613 824.531 458.88C824.808 459.136 825.293 459.323 825.987 459.44L827.171 459.648C828.173 459.829 828.904 460.197 829.363 460.752C829.821 461.296 830.051 461.963 830.051 462.752C830.051 463.264 829.96 463.733 829.779 464.16C829.608 464.587 829.347 464.949 828.995 465.248C828.653 465.547 828.227 465.781 827.715 465.952C827.213 466.112 826.637 466.192 825.987 466.192ZM837.692 456.336V466H835.9V456.336H832.396V454.832H841.196V456.336H837.692ZM843.99 466V464.64H846.614V456.192H843.99V454.832H851.03V456.192H848.406V464.64H851.03V466H843.99ZM856.288 457.408H856.144V466H854.576V454.832H856.88L860.16 463.424H860.304V454.832H861.872V466H859.568L856.288 457.408ZM871.017 464.464H870.905C870.809 464.688 870.692 464.907 870.553 465.12C870.425 465.323 870.26 465.504 870.057 465.664C869.865 465.824 869.631 465.952 869.353 466.048C869.076 466.144 868.756 466.192 868.393 466.192C867.231 466.192 866.356 465.696 865.769 464.704C865.183 463.712 864.889 462.309 864.889 460.496C864.889 458.597 865.225 457.147 865.897 456.144C866.569 455.141 867.599 454.64 868.985 454.64C869.529 454.64 870.004 454.715 870.409 454.864C870.825 455.013 871.177 455.216 871.465 455.472C871.753 455.717 871.993 456.011 872.185 456.352C872.377 456.683 872.532 457.035 872.649 457.408L871.033 457.952C870.948 457.707 870.852 457.477 870.745 457.264C870.639 457.04 870.505 456.843 870.345 456.672C870.196 456.501 870.009 456.368 869.785 456.272C869.572 456.176 869.311 456.128 869.001 456.128C868.223 456.128 867.657 456.432 867.305 457.04C866.964 457.637 866.793 458.448 866.793 459.472V461.248C866.793 461.76 866.831 462.229 866.905 462.656C866.98 463.083 867.103 463.451 867.273 463.76C867.455 464.059 867.684 464.293 867.961 464.464C868.249 464.635 868.596 464.72 869.001 464.72C869.652 464.72 870.148 464.528 870.489 464.144C870.841 463.749 871.017 463.248 871.017 462.64V461.632H868.857V460.288H872.649V466H871.017V464.464Z" fill="#111111"/>
<path d="M180.88 464.464H180.768C180.672 464.688 180.555 464.907 180.416 465.12C180.288 465.323 180.123 465.504 179.92 465.664C179.728 465.824 179.493 465.952 179.216 466.048C178.939 466.144 178.619 466.192 178.256 466.192C177.093 466.192 176.219 465.696 175.632 464.704C175.045 463.712 174.752 462.309 174.752 460.496C174.752 458.597 175.088 457.147 175.76 456.144C176.432 455.141 177.461 454.64 178.848 454.64C179.392 454.64 179.867 454.715 180.272 454.864C180.688 455.013 181.04 455.216 181.328 455.472C181.616 455.717 181.856 456.011 182.048 456.352C182.24 456.683 182.395 457.035 182.512 457.408L180.896 457.952C180.811 457.707 180.715 457.477 180.608 457.264C180.501 457.04 180.368 456.843 180.208 456.672C180.059 456.501 179.872 456.368 179.648 456.272C179.435 456.176 179.173 456.128 178.864 456.128C178.085 456.128 177.52 456.432 177.168 457.04C176.827 457.637 176.656 458.448 176.656 459.472V461.248C176.656 461.76 176.693 462.229 176.768 462.656C176.843 463.083 176.965 463.451 177.136 463.76C177.317 464.059 177.547 464.293 177.824 464.464C178.112 464.635 178.459 464.72 178.864 464.72C179.515 464.72 180.011 464.528 180.352 464.144C180.704 463.749 180.88 463.248 180.88 462.64V461.632H178.72V460.288H182.512V466H180.88V464.464ZM187.834 466H186.058V454.832H190.234C191.3 454.832 192.111 455.131 192.666 455.728C193.231 456.325 193.514 457.147 193.514 458.192C193.514 459.045 193.306 459.749 192.89 460.304C192.474 460.859 191.876 461.2 191.098 461.328L193.674 466H191.69L189.322 461.488H187.834V466ZM189.978 460.048C191.087 460.048 191.642 459.541 191.642 458.528V457.84C191.642 456.827 191.087 456.32 189.978 456.32H187.834V460.048H189.978ZM200.227 466.192C199.523 466.192 198.91 466.064 198.387 465.808C197.875 465.541 197.449 465.163 197.107 464.672C196.777 464.181 196.531 463.579 196.371 462.864C196.211 462.149 196.131 461.333 196.131 460.416C196.131 459.509 196.211 458.699 196.371 457.984C196.531 457.259 196.777 456.651 197.107 456.16C197.449 455.669 197.875 455.296 198.387 455.04C198.91 454.773 199.523 454.64 200.227 454.64C200.932 454.64 201.54 454.773 202.052 455.04C202.574 455.296 203.001 455.669 203.332 456.16C203.673 456.651 203.924 457.259 204.083 457.984C204.244 458.699 204.324 459.509 204.324 460.416C204.324 461.333 204.244 462.149 204.083 462.864C203.924 463.579 203.673 464.181 203.332 464.672C203.001 465.163 202.574 465.541 202.052 465.808C201.54 466.064 200.932 466.192 200.227 466.192ZM200.227 464.704C201.028 464.704 201.593 464.405 201.924 463.808C202.254 463.2 202.419 462.379 202.419 461.344V459.472C202.419 458.448 202.254 457.637 201.924 457.04C201.593 456.432 201.028 456.128 200.227 456.128C199.427 456.128 198.862 456.432 198.531 457.04C198.201 457.637 198.035 458.448 198.035 459.472V461.36C198.035 462.384 198.201 463.2 198.531 463.808C198.862 464.405 199.427 464.704 200.227 464.704ZM207.341 466L206.541 454.832H208.109L208.509 461.328L208.685 464.192H208.813L210.077 457.536H211.853L213.117 464.192H213.245L213.421 461.328L213.837 454.832H215.341L214.541 466H212.141L211.005 459.536H210.877L209.741 466H207.341ZM222.551 456.336V466H220.759V456.336H217.255V454.832H226.055V456.336H222.551ZM234.225 461.088H230.513V466H228.721V454.832H230.513V459.584H234.225V454.832H236.017V466H234.225V461.088ZM256.116 460.656L256.164 457.296H256.036L253.796 463.04L251.556 457.296H251.428L251.476 460.656V466H249.892V454.832H252.084L253.796 459.264H253.908L255.636 454.832H257.7V466H256.116V460.656ZM267.102 466L266.254 463.024H262.702L261.854 466H260.03L263.294 454.832H265.742L269.006 466H267.102ZM264.542 456.64H264.414L263.038 461.536H265.918L264.542 456.64ZM273.544 466H271.768V454.832H275.944C277.01 454.832 277.821 455.131 278.376 455.728C278.941 456.325 279.224 457.147 279.224 458.192C279.224 459.045 279.016 459.749 278.6 460.304C278.184 460.859 277.586 461.2 276.808 461.328L279.384 466H277.4L275.032 461.488H273.544V466ZM275.688 460.048C276.797 460.048 277.352 459.541 277.352 458.528V457.84C277.352 456.827 276.797 456.32 275.688 456.32H273.544V460.048H275.688ZM285.521 460.864L284.177 462.544V466H282.385V454.832H284.177V460.176H284.257L285.617 458.32L288.353 454.832H290.417L286.737 459.536L290.561 466H288.513L285.521 460.864ZM293.227 466V454.832H300.219V456.336H295.019V459.584H300.027V461.088H295.019V464.496H300.219V466H293.227ZM308.261 456.336V466H306.469V456.336H302.965V454.832H311.765V456.336H308.261ZM314.559 466V464.64H317.183V456.192H314.559V454.832H321.599V456.192H318.975V464.64H321.599V466H314.559ZM326.856 457.408H326.712V466H325.144V454.832H327.448L330.728 463.424H330.872V454.832H332.44V466H330.136L326.856 457.408ZM341.586 464.464H341.474C341.378 464.688 341.261 464.907 341.122 465.12C340.994 465.323 340.829 465.504 340.626 465.664C340.434 465.824 340.2 465.952 339.922 466.048C339.645 466.144 339.325 466.192 338.962 466.192C337.8 466.192 336.925 465.696 336.338 464.704C335.752 463.712 335.458 462.309 335.458 460.496C335.458 458.597 335.794 457.147 336.466 456.144C337.138 455.141 338.168 454.64 339.554 454.64C340.098 454.64 340.573 454.715 340.978 454.864C341.394 455.013 341.746 455.216 342.034 455.472C342.322 455.717 342.562 456.011 342.754 456.352C342.946 456.683 343.101 457.035 343.218 457.408L341.602 457.952C341.517 457.707 341.421 457.477 341.314 457.264C341.208 457.04 341.074 456.843 340.914 456.672C340.765 456.501 340.578 456.368 340.354 456.272C340.141 456.176 339.88 456.128 339.57 456.128C338.792 456.128 338.226 456.432 337.874 457.04C337.533 457.637 337.362 458.448 337.362 459.472V461.248C337.362 461.76 337.4 462.229 337.474 462.656C337.549 463.083 337.672 463.451 337.842 463.76C338.024 464.059 338.253 464.293 338.53 464.464C338.818 464.635 339.165 464.72 339.57 464.72C340.221 464.72 340.717 464.528 341.058 464.144C341.41 463.749 341.586 463.248 341.586 462.64V461.632H339.426V460.288H343.218V466H341.586V464.464Z" fill="#111111"/>
<path d="M3.5375 256H1.7615V244.832H5.9375C7.00416 244.832 7.81483 245.131 8.3695 245.728C8.93483 246.325 9.2175 247.147 9.2175 248.192C9.2175 249.045 9.0095 249.749 8.5935 250.304C8.1775 250.859 7.58016 251.2 6.8015 251.328L9.3775 256H7.3935L5.0255 251.488H3.5375V256ZM5.6815 250.048C6.79083 250.048 7.3455 249.541 7.3455 248.528V247.84C7.3455 246.827 6.79083 246.32 5.6815 246.32H3.5375V250.048H5.6815ZM12.5072 256V244.832H19.4992V246.336H14.2992V249.584H19.3072V251.088H14.2992V254.496H19.4992V256H12.5072ZM27.541 246.336V256H25.749V246.336H22.245V244.832H31.045V246.336H27.541ZM33.9347 256V244.832H40.9267V246.336H35.7267V249.584H40.7347V251.088H35.7267V254.496H40.9267V256H33.9347ZM46.1365 247.408H45.9925V256H44.4245V244.832H46.7285L50.0085 253.424H50.1525V244.832H51.7205V256H49.4165L46.1365 247.408ZM59.6822 246.336V256H57.8902V246.336H54.3862V244.832H63.1862V246.336H59.6822ZM65.98 256V254.64H68.604V246.192H65.98V244.832H73.02V246.192H70.396V254.64H73.02V256H65.98ZM80.2137 256.192C79.5097 256.192 78.8964 256.064 78.3737 255.808C77.8617 255.541 77.4351 255.163 77.0937 254.672C76.7631 254.181 76.5177 253.579 76.3577 252.864C76.1977 252.149 76.1177 251.333 76.1177 250.416C76.1177 249.509 76.1977 248.699 76.3577 247.984C76.5177 247.259 76.7631 246.651 77.0937 246.16C77.4351 245.669 77.8617 245.296 78.3737 245.04C78.8964 244.773 79.5097 244.64 80.2137 244.64C80.9177 244.64 81.5257 244.773 82.0377 245.04C82.5604 245.296 82.9871 245.669 83.3177 246.16C83.6591 246.651 83.9097 247.259 84.0697 247.984C84.2297 248.699 84.3097 249.509 84.3097 250.416C84.3097 251.333 84.2297 252.149 84.0697 252.864C83.9097 253.579 83.6591 254.181 83.3177 254.672C82.9871 255.163 82.5604 255.541 82.0377 255.808C81.5257 256.064 80.9177 256.192 80.2137 256.192ZM80.2137 254.704C81.0137 254.704 81.5791 254.405 81.9097 253.808C82.2404 253.2 82.4057 252.379 82.4057 251.344V249.472C82.4057 248.448 82.2404 247.637 81.9097 247.04C81.5791 246.432 81.0137 246.128 80.2137 246.128C79.4137 246.128 78.8484 246.432 78.5177 247.04C78.1871 247.637 78.0217 248.448 78.0217 249.472V251.36C78.0217 252.384 78.1871 253.2 78.5177 253.808C78.8484 254.405 79.4137 254.704 80.2137 254.704ZM88.9915 247.408H88.8475V256H87.2795V244.832H89.5835L92.8635 253.424H93.0075V244.832H94.5755V256H92.2715L88.9915 247.408ZM111.571 255.008V251.824H108.547V250.4H111.571V247.216H113.139V250.4H116.163V251.824H113.139V255.008H111.571ZM136.374 256L135.526 253.024H131.974L131.126 256H129.302L132.566 244.832H135.014L138.278 256H136.374ZM133.814 246.64H133.686L132.31 251.536H135.19L133.814 246.64ZM142.592 244.832V251.696C142.592 252.155 142.603 252.571 142.624 252.944C142.656 253.317 142.736 253.637 142.864 253.904C142.992 254.16 143.184 254.357 143.44 254.496C143.696 254.635 144.048 254.704 144.496 254.704C144.944 254.704 145.296 254.635 145.552 254.496C145.808 254.357 146 254.16 146.128 253.904C146.256 253.637 146.331 253.317 146.352 252.944C146.384 252.571 146.4 252.155 146.4 251.696V244.832H148.192V251.376C148.192 252.176 148.144 252.88 148.048 253.488C147.963 254.085 147.787 254.587 147.52 254.992C147.254 255.387 146.875 255.685 146.384 255.888C145.904 256.091 145.275 256.192 144.496 256.192C143.718 256.192 143.083 256.091 142.592 255.888C142.112 255.685 141.739 255.387 141.472 254.992C141.206 254.587 141.024 254.085 140.928 253.488C140.843 252.88 140.8 252.176 140.8 251.376V244.832H142.592ZM156.106 246.336V256H154.314V246.336H150.81V244.832H159.61V246.336H156.106ZM165.924 256.192C165.22 256.192 164.606 256.064 164.084 255.808C163.572 255.541 163.145 255.163 162.804 254.672C162.473 254.181 162.228 253.579 162.068 252.864C161.908 252.149 161.828 251.333 161.828 250.416C161.828 249.509 161.908 248.699 162.068 247.984C162.228 247.259 162.473 246.651 162.804 246.16C163.145 245.669 163.572 245.296 164.084 245.04C164.606 244.773 165.22 244.64 165.924 244.64C166.628 244.64 167.236 244.773 167.748 245.04C168.27 245.296 168.697 245.669 169.028 246.16C169.369 246.651 169.62 247.259 169.78 247.984C169.94 248.699 170.02 249.509 170.02 250.416C170.02 251.333 169.94 252.149 169.78 252.864C169.62 253.579 169.369 254.181 169.028 254.672C168.697 255.163 168.27 255.541 167.748 255.808C167.236 256.064 166.628 256.192 165.924 256.192ZM165.924 254.704C166.724 254.704 167.289 254.405 167.62 253.808C167.95 253.2 168.116 252.379 168.116 251.344V249.472C168.116 248.448 167.95 247.637 167.62 247.04C167.289 246.432 166.724 246.128 165.924 246.128C165.124 246.128 164.558 246.432 164.228 247.04C163.897 247.637 163.732 248.448 163.732 249.472V251.36C163.732 252.384 163.897 253.2 164.228 253.808C164.558 254.405 165.124 254.704 165.924 254.704ZM178.957 250.656L179.005 247.296H178.877L176.637 253.04L174.397 247.296H174.269L174.317 250.656V256H172.733V244.832H174.925L176.637 249.264H176.749L178.477 244.832H180.541V256H178.957V250.656ZM189.943 256L189.095 253.024H185.543L184.695 256H182.871L186.135 244.832H188.583L191.847 256H189.943ZM187.383 246.64H187.255L185.879 251.536H188.759L187.383 246.64ZM198.961 246.336V256H197.169V246.336H193.665V244.832H202.465V246.336H198.961ZM205.259 256V254.64H207.883V246.192H205.259V244.832H212.299V246.192H209.675V254.64H212.299V256H205.259ZM219.492 256.192C218.788 256.192 218.175 256.064 217.652 255.808C217.14 255.541 216.714 255.163 216.372 254.672C216.042 254.181 215.796 253.579 215.636 252.864C215.476 252.149 215.396 251.333 215.396 250.416C215.396 249.509 215.476 248.699 215.636 247.984C215.796 247.259 216.042 246.651 216.372 246.16C216.714 245.669 217.14 245.296 217.652 245.04C218.175 244.773 218.788 244.64 219.492 244.64C220.196 244.64 220.804 244.773 221.316 245.04C221.839 245.296 222.266 245.669 222.596 246.16C222.938 246.651 223.188 247.259 223.348 247.984C223.508 248.699 223.588 249.509 223.588 250.416C223.588 251.333 223.508 252.149 223.348 252.864C223.188 253.579 222.938 254.181 222.596 254.672C222.266 255.163 221.839 255.541 221.316 255.808C220.804 256.064 220.196 256.192 219.492 256.192ZM219.492 254.704C220.292 254.704 220.858 254.405 221.188 253.808C221.519 253.2 221.684 252.379 221.684 251.344V249.472C221.684 248.448 221.519 247.637 221.188 247.04C220.858 246.432 220.292 246.128 219.492 246.128C218.692 246.128 218.127 246.432 217.796 247.04C217.466 247.637 217.3 248.448 217.3 249.472V251.36C217.3 252.384 217.466 253.2 217.796 253.808C218.127 254.405 218.692 254.704 219.492 254.704ZM228.27 247.408H228.126V256H226.558V244.832H228.862L232.142 253.424H232.286V244.832H233.854V256H231.55L228.27 247.408Z" fill="#111111"/>
</svg>
