<svg xmlns="http://www.w3.org/2000/svg" viewBox="0 0 300 44"><defs><style>.cls-1{fill:#fff;}</style></defs><g id="Layer_2" data-name="Layer 2"><g id="Layer_6" data-name="Layer 6"><path class="cls-1" d="M300,29.88l-4.69-4.64,4.6-4.55V6.93L293,.13H257.77V44h8.45V28h22.16l3.17,3.15V44H300V29.88Zm-33.78-23h25.26V21.18H266.22Z"/><path class="cls-1" d="M35.37,0H0V43.87H35.35l6.86-6.8V6.8ZM33.8,37.07H8.45V6.8H33.8Z"/><path class="cls-1" d="M90.59,0H56L49.12,6.8V37.07L56,43.87H90.61l6.86-6.8V6.8Zm-33,37.07V6.8H89V37.05l-31.47,0Z"/><polygon class="cls-1" points="144.47 0 128.62 25.38 112.79 0 104.34 0 104.34 43.87 112.79 43.87 112.79 22.36 112.53 13.85 123.93 32.14 133.32 32.14 144.73 13.85 144.47 22.36 144.47 43.87 152.92 43.87 152.92 0 144.47 0"/><path class="cls-1" d="M201.92,6.8,195.06,0H159.78V43.87h35.28l6.86-6.8v-11l-4.22-4.18,4.22-4.19Zm-8.43,0V18.53H168.23V6.8ZM168.23,37.07V25.34h25.26V37.07Z"/><path class="cls-1" d="M242.37,0V37.07H217.24V0h-8.45V37.07l6.86,6.8h28.28l6.87-6.8V0Z"/><path class="cls-1" d="M299.91,29.76l-4.68-4.64,4.59-4.55V6.82L293,0H257.68V43.89h8.45v-16h22.16L291.46,31V43.87h8.45V29.76Zm-33.78-23h25.26V21.07H266.13Z"/></g></g></svg>