<svg width="1626" height="241" viewBox="0 0 1626 241" fill="none" xmlns="http://www.w3.org/2000/svg">
<path d="M491.5 0.699951H303.9L266.7 37.8999V203.6L303.9 240.8H491.6L528.8 203.6V37.8999L491.5 0.699951ZM312.4 203.6V37.8999H483V203.5L312.4 203.6Z" fill="#111111"/>
<path d="M1314.1 0.699951V203.6H1177.9V0.699951H1132.1V203.6L1169.3 240.8H1322.6L1359.8 203.6V0.699951" fill="#111111"/>
<path d="M783.5 0.699951L697.6 139.6L611.8 0.699951H566V240.8H611.8V123.1L610.4 76.4999L672.2 176.6H723.1L784.9 76.4999L783.5 123.1V240.8H829.3V0.699951H783.5Z" fill="#111111"/>
<path d="M1094.9 37.8999L1057.7 0.699951H866.5V240.8H1057.7L1094.9 203.6V143.6L1072 120.7L1094.9 97.7999V37.8999ZM1049.2 37.8999V102.1H912.3V37.8999H1049.2ZM912.3 203.6V139.4H1049.2V203.6H912.3Z" fill="#111111"/>
<path d="M1626 163.6L1600.6 138.2L1625.5 113.3V37.9998L1588.3 0.799805H1397.1V240.9H1442.9V153.3H1563L1580.2 170.5V240.8H1626V163.6ZM1442.9 37.8998H1579.8V116H1442.9V37.8998Z" fill="#111111"/>
<path d="M192.2 0.699951H0.5V240.8H192.1L229.3 203.6V37.8999L192.2 0.699951ZM183.7 203.6H46.3V37.8999H183.7V203.6V203.6Z" fill="#111111"/>
</svg>
