<svg xmlns="http://www.w3.org/2000/svg" viewBox="0 0 400 400"><defs><style>.cls-1{fill:#ceff00;}.cls-2{font-size:21.47px;font-family:IBMPlexMono-Regular, IBM Plex Mono;}</style></defs><g id="Layer_2" data-name="Layer 2"><g id="Layer_1-2" data-name="Layer 1"><circle class="cls-1" cx="200" cy="200" r="200"/><text class="cls-2" transform="matrix(0.93, -0.36, 0.36, 0.93, 134.97, 48.04)">G</text><text class="cls-2" transform="matrix(0.96, -0.28, 0.28, 0.96, 146.88, 43.47)">R</text><text class="cls-2" transform="translate(159.07 39.86) rotate(-12.05)">O</text><text class="cls-2" transform="translate(171.52 37.19) rotate(-7.62)">W</text><text class="cls-2" transform="translate(184.15 35.5) rotate(-3.22)">T</text><text class="cls-2" transform="translate(196.86 34.78) rotate(1.12)">H</text><text class="cls-2" transform="matrix(1, 0.1, -0.1, 1, 209.63, 35.03)"> </text><text class="cls-2" transform="translate(222.28 36.24) rotate(9.91)">M</text><text class="cls-2" transform="matrix(0.97, 0.25, -0.25, 0.97, 234.84, 38.43)">A</text><text class="cls-2" transform="translate(247.19 41.59) rotate(18.82)">R</text><text class="cls-2" transform="translate(259.22 45.68) rotate(23.26)">K</text><text class="cls-2" transform="matrix(0.89, 0.46, -0.46, 0.89, 270.94, 50.71)">E</text><text class="cls-2" transform="translate(282.21 56.62) rotate(32.11)">T</text><text class="cls-2" transform="matrix(0.8, 0.6, -0.6, 0.8, 293, 63.38)">I</text><text class="cls-2" transform="matrix(0.76, 0.66, -0.66, 0.76, 303.24, 70.96)">N</text><text class="cls-2" transform="matrix(0.7, 0.71, -0.71, 0.7, 312.89, 79.32)">G</text><text class="cls-2" transform="translate(321.84 88.37) rotate(49.71)"> </text><text class="cls-2" transform="translate(330.09 98.08) rotate(54.11)"> </text><text class="cls-2" transform="matrix(0.52, 0.85, -0.85, 0.52, 337.55, 108.38)">A</text><text class="cls-2" transform="translate(344.22 119.26) rotate(62.94)">/</text><text class="cls-2" transform="translate(350.01 130.59) rotate(67.38)">B</text><text class="cls-2" transform="translate(354.91 142.33) rotate(71.82)">-</text><text class="cls-2" transform="translate(358.89 154.43) rotate(76.27)">T</text><text class="cls-2" transform="translate(361.92 166.8) rotate(80.72)">E</text><text class="cls-2" transform="translate(363.97 179.37) rotate(85.13)">S</text><text class="cls-2" transform="translate(365.01 192.09) rotate(89.07)">T</text><text class="cls-2" transform="matrix(-0.07, 1, -1, -0.07, 365.18, 204.8)">I</text><text class="cls-2" transform="matrix(-0.14, 0.99, -0.99, -0.14, 364.33, 217.52)">N</text><text class="cls-2" transform="translate(362.51 230.13) rotate(102.69)">G</text><text class="cls-2" transform="translate(359.72 242.56) rotate(107.13)"> </text><text class="cls-2" transform="translate(355.97 254.74) rotate(111.59)"> </text><text class="cls-2" transform="translate(351.29 266.59) rotate(116.03)">A</text><text class="cls-2" transform="translate(345.71 278.01) rotate(120.45)">U</text><text class="cls-2" transform="translate(339.25 289.01) rotate(124.87)">T</text><text class="cls-2" transform="translate(331.99 299.45) rotate(129.27)">O</text><text class="cls-2" transform="matrix(-0.69, 0.72, -0.72, -0.69, 323.91, 309.33)">M</text><text class="cls-2" transform="translate(315.13 318.55) rotate(138.05)">A</text><text class="cls-2" transform="translate(305.66 327.07) rotate(142.45)">T</text><text class="cls-2" transform="matrix(-0.84, 0.55, -0.55, -0.84, 295.57, 334.83)">I</text><text class="cls-2" transform="translate(284.9 341.8) rotate(151.27)">O</text><text class="cls-2" transform="translate(273.74 347.93) rotate(155.7)">N</text><text class="cls-2" transform="translate(262.12 353.18) rotate(160.15)"> </text><text class="cls-2" transform="matrix(-0.96, 0.27, -0.27, -0.96, 250.16, 357.5)"> </text><text class="cls-2" transform="translate(237.87 360.89) rotate(169.05)">R</text><text class="cls-2" transform="translate(225.36 363.32) rotate(173.48)">E</text><text class="cls-2" transform="matrix(-1, 0.04, -0.04, -1, 212.72, 364.77)">T</text><text class="cls-2" transform="translate(199.99 365.25) rotate(-177.8)">E</text><text class="cls-2" transform="translate(187.24 364.77) rotate(-173.41)">N</text><text class="cls-2" transform="translate(174.59 363.31) rotate(-168.98)">T</text><text class="cls-2" transform="translate(162.11 360.89) rotate(-164.55)">I</text><text class="cls-2" transform="translate(149.81 357.49) rotate(-160.09)">O</text><text class="cls-2" transform="translate(137.86 353.17) rotate(-155.65)">N</text><text class="cls-2" transform="translate(126.25 347.92) rotate(-151.22)"> </text><text class="cls-2" transform="matrix(-0.84, -0.55, 0.55, -0.84, 115.08, 341.79)"> </text><text class="cls-2" transform="translate(104.4 334.81) rotate(-142.38)">U</text><text class="cls-2" transform="translate(94.31 327.04) rotate(-137.99)">S</text><text class="cls-2" transform="matrix(-0.69, -0.72, 0.72, -0.69, 84.85, 318.52)">A</text><text class="cls-2" transform="translate(76.06 309.31) rotate(-129.21)">B</text><text class="cls-2" transform="translate(68 299.43) rotate(-124.81)">I</text><text class="cls-2" transform="matrix(-0.51, -0.86, 0.86, -0.51, 60.73, 288.99)">L</text><text class="cls-2" transform="matrix(-0.44, -0.9, 0.9, -0.44, 54.28, 278)">I</text><text class="cls-2" transform="translate(48.69 266.54) rotate(-111.52)">T</text><text class="cls-2" transform="matrix(-0.29, -0.96, 0.96, -0.29, 44.02, 254.71)">Y</text><text class="cls-2" transform="matrix(-0.22, -0.98, 0.98, -0.22, 40.28, 242.54)"> </text><text class="cls-2" transform="translate(37.49 230.11) rotate(-98.19)"> </text><text class="cls-2" transform="translate(35.66 217.49) rotate(-93.79)">U</text><text class="cls-2" transform="translate(34.78 204.8) rotate(-89.07)">S</text><text class="cls-2" transform="translate(34.94 192.04) rotate(-85.07)">E</text><text class="cls-2" transform="translate(36.03 179.35) rotate(-80.66)">R</text><text class="cls-2" transform="translate(38.09 166.78) rotate(-76.22)"> </text><text class="cls-2" transform="translate(41.12 154.42) rotate(-71.77)">E</text><text class="cls-2" transform="translate(45.1 142.3) rotate(-67.31)">X</text><text class="cls-2" transform="matrix(0.46, -0.89, 0.89, 0.46, 50, 130.56)">P</text><text class="cls-2" transform="matrix(0.52, -0.85, 0.85, 0.52, 55.8, 119.23)">E</text><text class="cls-2" transform="matrix(0.59, -0.81, 0.81, 0.59, 62.46, 108.36)">R</text><text class="cls-2" transform="matrix(0.65, -0.76, 0.76, 0.65, 69.94, 98.04)">I</text><text class="cls-2" transform="matrix(0.7, -0.71, 0.71, 0.7, 78.18, 88.34)">E</text><text class="cls-2" transform="matrix(0.76, -0.65, 0.65, 0.76, 87.14, 79.29)">N</text><text class="cls-2" transform="translate(96.77 70.95) rotate(-36.47)">C</text><text class="cls-2" transform="translate(107.01 63.38) rotate(-32.06)">E</text><text class="cls-2" transform="matrix(0.89, -0.46, 0.46, 0.89, 117.82, 56.6)"> </text></g></g></svg>